<svg xmlns="http://www.w3.org/2000/svg" width="12" height="12" fill="none" viewBox="0 0 12 12"><path stroke="#72D39B" stroke-linecap="round" stroke-linejoin="round" stroke-width="1.2" d="M10 4C10 5.65685 8.65685 7 7 7C6.38888 7 5.8203 6.81734 5.34758 6.5053L1.70711 10.1458C1.31658 10.5363 0.683417 10.5363 0.292893 10.1458C-0.0976311 9.75525 -0.0976311 9.12208 0.292893 8.73156L1.13961 7.88484L2.09459 8.83982L2.83982 8.09459L1.88484 7.13961L2.73156 6.29289C3.12208 5.90237 3.75525 5.90237 4.14578 6.29289L4.6947 6.84182C5.03233 6.23072 5.2284 5.52554 5.2284 4.7716C5.2284 3.11475 6.57155 1.7716 8.2284 1.7716C9.88525 1.7716 11.2284 3.11475 11.2284 4.7716C11.2284 6.42845 9.88525 7.7716 8.2284 7.7716"/><circle cx="8" cy="4" r="3" stroke="#72D39B" stroke-width="1.2"/><circle cx="8.438" cy="3.5" r=".8" fill="#72D39B"/><path stroke="#72D39B" stroke-linecap="round" stroke-width="1.2" d="M5.5 6.5L1.5 10.5"/><path stroke="#72D39B" stroke-linecap="round" stroke-width="1.2" d="M2.5 9.5L4 11"/><path stroke="#72D39B" stroke-linecap="round" stroke-width="1.2" d="M4 8L5.5 9.5"/></svg>