<svg width="12" height="12" viewBox="0 0 12 12" fill="none" xmlns="http://www.w3.org/2000/svg">
<path d="M8.4375 3.50006C8.45408 3.50006 8.46972 3.50689 8.48145 3.51862C8.49316 3.53034 8.5 3.54599 8.5 3.56256C8.49999 3.57491 8.49612 3.58745 8.48926 3.59772C8.48241 3.60779 8.4722 3.61551 8.46094 3.62018C8.44978 3.62471 8.43761 3.62634 8.42578 3.62408C8.41366 3.62167 8.40229 3.61524 8.39355 3.60651C8.38481 3.59776 8.37839 3.5864 8.37598 3.57428C8.37369 3.5623 8.37521 3.54942 8.37988 3.53815C8.38457 3.52707 8.39239 3.51757 8.40234 3.5108C8.41262 3.50394 8.42514 3.50006 8.4375 3.50006Z" fill="#72D39B" stroke="#72D39B"/>
</svg>
