<svg width="11" height="11" viewBox="0 0 11 11" fill="none" xmlns="http://www.w3.org/2000/svg">
<path d="M7.3125 2.75195C7.32908 2.75195 7.34472 2.75879 7.35645 2.77051C7.36816 2.78223 7.375 2.79789 7.375 2.81445C7.37499 2.8268 7.37112 2.83934 7.36426 2.84961C7.35741 2.85969 7.3472 2.8674 7.33594 2.87207C7.32478 2.87661 7.31261 2.87823 7.30078 2.87598C7.28866 2.87357 7.27729 2.86713 7.26855 2.8584C7.25981 2.84966 7.25339 2.83829 7.25098 2.82617C7.24869 2.81419 7.25021 2.80131 7.25488 2.79004C7.25957 2.77896 7.26739 2.76946 7.27734 2.7627C7.28762 2.75583 7.30014 2.75195 7.3125 2.75195Z" fill="#72D39B" stroke="#72D39B"/>
</svg>
