<svg xmlns="http://www.w3.org/2000/svg" width="24" height="24" fill="none" viewBox="0 0 24 24"><path fill="#B8B8B8" d="M20.0858 3.96936C19.0615 2.94508 17.6151 2.78394 15.9072 2.78394H8.07253C6.38524 2.78394 4.93881 2.94465 3.9141 3.96936C2.88938 4.99408 2.73853 6.43022 2.73853 8.10765V15.8622C2.73853 17.5799 2.88895 19.0062 3.91367 20.0305C4.93838 21.0548 6.38481 21.2159 8.1021 21.2159H15.9068C17.6147 21.2159 19.0611 21.0552 20.0854 20.0305C21.1101 19.0062 21.2605 17.5799 21.2605 15.8622V8.13765C21.2605 6.41994 21.1105 4.98336 20.0858 3.96936ZM19.6435 7.85651V16.1335C19.6435 17.1779 19.5128 18.2425 18.9107 18.8554C18.2978 19.4579 17.2127 19.5985 16.1781 19.5985H7.82096C6.78638 19.5985 5.70167 19.4579 5.0991 18.8554C4.48624 18.2425 4.35553 17.1779 4.35553 16.1331V7.88694C4.35553 6.83265 4.48624 5.74751 5.08881 5.14494C5.70167 4.53208 6.79624 4.40179 7.85096 4.40179H16.1781C17.2127 4.40179 18.2974 4.54236 18.9102 5.14494C19.5128 5.75779 19.6435 6.82194 19.6435 7.85651ZM12 17.3588C12.402 17.3588 12.7234 17.0472 12.7234 16.6457V12.7182H16.6508C17.0524 12.7182 17.3738 12.3766 17.3738 12.0051C17.3738 11.6134 17.0524 11.2816 16.6508 11.2816H12.7234V7.34436C12.7234 6.94236 12.402 6.63122 12 6.63122C11.9059 6.62983 11.8126 6.64733 11.7254 6.68268C11.6383 6.71803 11.5591 6.77051 11.4926 6.83701C11.4261 6.90351 11.3736 6.98268 11.3383 7.06982C11.3029 7.15697 11.2854 7.25033 11.2868 7.34436V11.2816H7.35938C6.95738 11.2816 6.63595 11.6134 6.63595 12.0051C6.63595 12.3766 6.95738 12.7182 7.35938 12.7182H11.2868V16.6457C11.2868 17.0472 11.5984 17.3588 12 17.3588Z"/></svg>