<svg xmlns="http://www.w3.org/2000/svg" width="16" height="16" fill="none" viewBox="0 0 16 16"><path fill="#B8B8B8" stroke="#B8B8B8" stroke-width=".2" d="M8.27734 0.907227C9.66102 0.977257 10.9737 1.55771 11.958 2.54199C13.0078 3.59181 13.5979 5.01533 13.5996 6.5L13.5889 6.875C13.4883 8.63069 12.6869 10.4589 11.2646 12.208L10.9502 12.5811C10.1749 13.4779 9.30248 14.2863 8.34863 14.9902L8.34668 14.9912C8.24592 15.0618 8.12595 15.0995 8.00293 15.0996C7.87975 15.0996 7.75909 15.0619 7.6582 14.9912L7.65625 14.9902C6.70062 14.2866 5.82664 13.4782 5.0498 12.5811C3.32116 10.5958 2.40039 8.49366 2.40039 6.5L2.40723 6.22266C2.47726 4.83898 3.05771 3.52628 4.04199 2.54199C5.09181 1.49217 6.51533 0.902075 8 0.900391L8.27734 0.907227ZM8 2.09961C6.83305 2.09961 5.71383 2.56351 4.88867 3.38867C4.06351 4.21383 3.59961 5.33305 3.59961 6.5C3.59961 8.25738 4.45161 9.87702 5.44141 11.1641C6.39179 12.3998 7.4626 13.3181 8 13.7461C8.5374 13.3181 9.6082 12.399 10.5586 11.1631C11.5483 9.87592 12.4004 8.25662 12.4004 6.5C12.4004 5.33305 11.9365 4.21383 11.1113 3.38867C10.2862 2.56351 9.16695 2.09961 8 2.09961ZM8 3.90039C8.68956 3.90039 9.35127 4.17354 9.83887 4.66113C10.3265 5.14873 10.5996 5.81044 10.5996 6.5C10.5996 7.01414 10.4477 7.51682 10.1621 7.94434C9.87642 8.3719 9.47019 8.70555 8.99512 8.90234C8.52014 9.09909 7.99741 9.15004 7.49316 9.0498C6.98881 8.94948 6.52475 8.70248 6.16113 8.33887C5.79752 7.97525 5.55052 7.51119 5.4502 7.00684C5.34996 6.50259 5.40091 5.97986 5.59766 5.50488C5.79445 5.02981 6.12811 4.62358 6.55566 4.33789C6.98318 4.0523 7.48586 3.90039 8 3.90039ZM8.53613 5.20703C8.28032 5.10107 7.99814 5.07293 7.72656 5.12695C7.45511 5.18101 7.20548 5.31405 7.00977 5.50977C6.81405 5.70548 6.68101 5.95511 6.62695 6.22656C6.57293 6.49814 6.60107 6.78032 6.70703 7.03613C6.81302 7.29174 6.99257 7.51033 7.22266 7.66406C7.45282 7.81776 7.72323 7.90039 8 7.90039C8.3713 7.90039 8.72768 7.75279 8.99023 7.49023C9.25279 7.22768 9.40039 6.8713 9.40039 6.5C9.40039 6.22323 9.31776 5.95282 9.16406 5.72266C9.01033 5.49257 8.79174 5.31302 8.53613 5.20703Z"/></svg>